<?xml version="1.0" encoding="UTF-8" standalone="no"?>
<!-- Created with Inkscape (http://www.inkscape.org/) -->

<svg
   width="61.034874mm"
   height="61.264545mm"
   viewBox="0 0 61.034874 61.264545"
   version="1.1"
   id="svg1"
   xmlns:inkscape="http://www.inkscape.org/namespaces/inkscape"
   xmlns:sodipodi="http://sodipodi.sourceforge.net/DTD/sodipodi-0.dtd"
   xmlns="http://www.w3.org/2000/svg"
   xmlns:svg="http://www.w3.org/2000/svg">
  <sodipodi:namedview
     id="namedview1"
     pagecolor="#ffffff"
     bordercolor="#000000"
     borderopacity="0.25"
     inkscape:showpageshadow="2"
     inkscape:pageopacity="0.0"
     inkscape:pagecheckerboard="0"
     inkscape:deskcolor="#d1d1d1"
     inkscape:document-units="mm"
     showguides="false"
     inkscape:zoom="1.6210963"
     inkscape:cx="323.23804"
     inkscape:cy="340.20187"
     inkscape:window-width="1920"
     inkscape:window-height="1008"
     inkscape:window-x="0"
     inkscape:window-y="0"
     inkscape:window-maximized="1"
     inkscape:current-layer="layer2">
    <inkscape:page
       x="0"
       y="0"
       width="61.034874"
       height="61.264545"
       id="page2"
       margin="0"
       bleed="0" />
  </sodipodi:namedview>
  <defs
     id="defs1" />
  <g
     inkscape:groupmode="layer"
     id="layer2"
     inkscape:label="Layer 2"
     transform="translate(-39.345057,-35.375848)">
    <g
       id="text1-5"
       style="font-size:50.8px;line-height:0.7;stroke-width:0.264583"
       aria-label="Cata&#10;.Moe"
       transform="matrix(1.1691227,0,0,1.6430175,-8.3374148,-59.753515)"
       inkscape:export-filename="favicon.webp"
       inkscape:export-xdpi="54.310001"
       inkscape:export-ydpi="54.310001">
      <path
         style="font-weight:bold;font-family:Monospace;-inkscape-font-specification:'Monospace Bold';fill:#52a4ff;fill-opacity:1"
         d="m 56.005024,95.186375 c -3.488267,0 -6.296326,-0.728133 -8.565393,-2.1844 -2.2352,-1.490133 -3.9116,-3.572933 -5.0292,-6.2484 -1.083733,-2.709333 -1.6256,-5.858933 -1.6256,-9.448799 0,-4.030133 0.643467,-7.484533 1.9304,-10.3632 1.3208,-2.912533 3.2512,-5.147733 5.7912,-6.7056 2.573867,-1.557867 5.723467,-2.3368 9.4488,-2.3368 1.761067,0 3.302,0.186267 4.6228,0.5588 1.354667,0.338667 2.726267,0.846667 4.1148,1.524 l -2.4384,6.0452 c -1.253067,-0.643467 -2.421467,-1.083733 -3.5052,-1.3208 -1.049867,-0.237067 -2.065867,-0.3556 -3.048,-0.3556 -2.3368,0 -4.199467,0.524933 -5.588,1.5748 -1.388533,1.049867 -2.3876,2.523067 -2.9972,4.4196 -0.575733,1.896533 -0.8636,4.1148 -0.8636,6.6548 0,3.996266 0.7112,6.959599 2.1336,8.889999 1.4224,1.896533 3.725333,2.8448 6.9088,2.8448 1.185333,0 2.3876,-0.1524 3.6068,-0.4572 1.253067,-0.3048 2.709333,-0.829733 4.3688,-1.5748 v 6.604 c -1.456267,0.643467 -2.980267,1.1176 -4.572,1.4224 -1.557867,0.3048 -3.169407,0.4572 -4.693407,0.4572 z"
         id="path2"
         inkscape:export-filename="path2.svg"
         inkscape:export-xdpi="54.310001"
         inkscape:export-ydpi="54.310001"
         sodipodi:nodetypes="sccsccsccccsscscsccccs" />
      <path
         style="font-weight:bold;font-family:Monospace;-inkscape-font-specification:'Monospace Bold';fill:#52a4ff;fill-opacity:1"
         d="M 66.625339,94.810669 V 58.539474 h 9.9568 l 3.098799,20.573995 h 0.2032 l 3.6576,-20.573995 h 9.4488 L 56.00678,95.186998 86.386538,94.810669 v -8.2804 c 0,-1.3208 0.03387,-2.81093 0.1016,-4.4704 0.06773,-1.69333 0.1524,-3.42053 0.254,-5.1816 0.1016,-1.79493 0.2032,-3.48827 0.3048,-5.08 0.1016,-1.59173 0.186267,-2.96333 0.254,-4.1148 0.06773,-1.18533 0.118533,-1.99813 0.1524,-2.4384 h -0.3048 l -3.7084,21.0312 h -7.162799 l -4.0132,-21.082 h -0.3048 c 0.03387,0.508 0.1016,1.35467 0.2032,2.54 0.1016,1.18533 0.2032,2.5908 0.3048,4.2164 0.135467,1.59173 0.254,3.28507 0.3556,5.08 0.135467,1.76107 0.237067,3.5052 0.3048,5.2324 0.06773,1.69333 0.1016,3.2512 0.1016,4.6736 v 7.874 z"
         id="path3"
         sodipodi:nodetypes="cccccccccsccscccccccscccscc" />
    </g>
  </g>
</svg>
